<svg xmlns="http://www.w3.org/2000/svg" version="1.1" xmlns:xlink="http://www.w3.org/1999/xlink" xmlns:svgjs="http://svgjs.dev/svgjs" width="765" height="625" viewBox="0 0 641.4 300" class="svg-animations " style="background-color: rgb(110, 84, 119);"><svg viewBox="0 0 135 140" width="100" height="100" style="fill: rgb(255, 255, 255);" x="53.44999999999999" y="100"><svg width="135" height="135" viewBox="0 0 135 135" xmlns="http://www.w3.org/2000/svg">
<g clip-path="url(#clip0)">
<path d="M85.9282 46.8209C90.6669 51.5596 98.4331 51.5596 103.172 46.8209L122.127 27.8661C109.859 10.9911 89.9693 0 67.5 0C59.1941 0 51.2436 1.51375 43.8855 4.25166C44.3857 5.08093 44.978 5.87071 45.6888 6.58151L85.9282 46.8209Z"/>
<path d="M49.5324 87.9027C44.7938 83.164 37.0276 83.164 32.2889 87.9027L12.9524 107.239C25.2335 124.061 45.0833 135 67.5 135C76.0033 135 84.1249 133.407 91.6146 130.551C91.1013 129.695 90.4958 128.879 89.7718 128.142L49.5324 87.9027Z"/>
<path d="M135 67.4998C135 59.1018 133.447 51.0592 130.643 43.6353C129.88 44.1091 129.169 44.662 128.511 45.3201L88.2713 85.5595C83.5326 90.2982 83.5326 98.0644 88.2713 102.803L107.397 121.929C124.127 109.648 135 89.8506 135 67.4998Z"/>
<path d="M47.1894 49.1638C51.9281 44.4251 51.9281 36.6589 47.1894 31.9202L28.0241 12.7549C11.0569 25.0228 0 44.9648 0 67.4999C0 75.8979 1.55324 83.9405 4.35696 91.3645C5.29154 90.838 6.17346 90.193 6.96324 89.4032L47.1894 49.1638Z"/>
</g>
</svg></svg><svg style="fill: rgb(255, 255, 255);" x="163.45" y="127.52999877929688"><path d="M18.14 3.24L18.14 3.24Q20.60 3.24 22.42 3.65Q24.23 4.06 25.44 4.79Q26.65 5.52 27.25 6.50Q27.84 7.48 27.84 8.63L27.84 8.63Q27.84 9.41 27.53 10.03Q27.21 10.65 26.65 11.08Q26.09 11.52 25.32 11.75Q24.56 11.98 23.67 11.98L23.67 11.98Q23.67 10.86 23.38 9.76Q23.09 8.66 22.42 7.78Q21.75 6.90 20.68 6.35Q19.62 5.80 18.05 5.80L18.05 5.80Q15.33 5.80 13.43 6.79Q11.53 7.79 10.34 9.70Q9.14 11.61 8.60 14.41Q8.06 17.21 8.06 20.82L8.06 20.82Q8.06 24.03 8.63 26.70Q9.19 29.38 10.41 31.29Q11.63 33.20 13.51 34.25Q15.40 35.30 18.05 35.30L18.05 35.30Q19.80 35.30 21.15 34.96Q22.50 34.63 23.53 34.06Q24.56 33.50 25.35 32.76Q26.13 32.02 26.74 31.23L26.74 31.23Q27.14 31.48 27.40 31.93Q27.66 32.38 27.66 33.10L27.66 33.10Q27.66 34.02 27.04 34.96Q26.41 35.91 25.15 36.69Q23.88 37.46 21.94 37.96Q19.99 38.47 17.32 38.47L17.32 38.47Q13.73 38.47 11.02 37.20Q8.30 35.94 6.46 33.62Q4.62 31.30 3.68 28.04Q2.74 24.78 2.74 20.82L2.74 20.82Q2.74 16.93 3.73 13.70Q4.71 10.46 6.64 8.14Q8.58 5.82 11.46 4.53Q14.34 3.24 18.14 3.24ZM30.09 35.98L30.70 35.98Q31.52 35.98 32.24 35.87Q32.95 35.75 33.48 35.39Q34.01 35.02 34.32 34.34Q34.64 33.66 34.64 32.54L34.64 32.54L34.64 6.80Q34.64 5.75 34.32 5.11Q34.01 4.46 33.47 4.11Q32.93 3.76 32.21 3.65Q31.50 3.55 30.70 3.55L30.70 3.55L30.09 3.55L30.09 1.53L39.16 1.53L39.16 32.54Q39.16 33.66 39.47 34.34Q39.77 35.02 40.31 35.39Q40.85 35.75 41.57 35.87Q42.28 35.98 43.10 35.98L43.10 35.98L43.71 35.98L43.71 38L30.09 38L30.09 35.98ZM69.40 25.09L69.40 25.09Q69.40 31.86 66.53 35.16Q63.66 38.47 58.13 38.47L58.13 38.47Q55.52 38.47 53.46 37.65Q51.40 36.83 49.96 35.16Q48.52 33.50 47.75 30.98Q46.99 28.46 46.99 25.09L46.99 25.09Q46.99 18.36 49.84 15.08Q52.69 11.80 58.27 11.80L58.27 11.80Q60.87 11.80 62.93 12.61Q64.99 13.41 66.43 15.07Q67.88 16.72 68.64 19.21Q69.40 21.71 69.40 25.09ZM51.63 25.09L51.63 25.09Q51.63 27.76 51.98 29.80Q52.34 31.84 53.12 33.21Q53.91 34.58 55.16 35.28Q56.41 35.98 58.22 35.98L58.22 35.98Q60.02 35.98 61.27 35.28Q62.51 34.58 63.28 33.21Q64.05 31.84 64.39 29.80Q64.73 27.76 64.73 25.09L64.73 25.09Q64.73 22.41 64.38 20.40Q64.03 18.38 63.26 17.04Q62.48 15.69 61.23 15.01Q59.98 14.33 58.17 14.33L58.17 14.33Q56.37 14.33 55.13 15.01Q53.88 15.69 53.11 17.04Q52.34 18.38 51.98 20.40Q51.63 22.41 51.63 25.09ZM97.34 12.27L97.34 32.77Q97.34 33.83 97.65 34.47Q97.97 35.12 98.51 35.45Q99.05 35.77 99.76 35.88Q100.48 35.98 101.27 35.98L101.27 35.98L101.41 35.98L101.41 38L93.80 38L93.16 34.11L92.93 34.11Q92.20 35.47 91.32 36.31Q90.45 37.16 89.46 37.64Q88.48 38.12 87.40 38.29Q86.32 38.47 85.15 38.47L85.15 38.47Q83.25 38.47 81.77 37.93Q80.30 37.39 79.29 36.24Q78.28 35.09 77.75 33.31Q77.23 31.53 77.23 29.07L77.23 29.07L77.23 17.56Q77.23 16.51 76.91 15.86Q76.59 15.22 76.05 14.87Q75.52 14.52 74.80 14.40Q74.09 14.28 73.29 14.28L73.29 14.28L73.15 14.28L73.15 12.27L81.75 12.27L81.75 28.84Q81.75 30.41 82.00 31.63Q82.24 32.84 82.82 33.69Q83.39 34.53 84.36 34.96Q85.34 35.40 86.79 35.40L86.79 35.40Q88.38 35.40 89.52 34.84Q90.66 34.27 91.39 33.25Q92.13 32.23 92.48 30.80Q92.84 29.38 92.84 27.64L92.84 27.64L92.84 17.75Q92.84 16.63 92.52 15.93Q92.20 15.24 91.68 14.88Q91.15 14.52 90.43 14.40Q89.72 14.28 88.90 14.28L88.90 14.28L88.76 14.28L88.76 12.27L97.34 12.27ZM126.80 1.53L126.80 32.73Q126.80 33.78 127.11 34.43Q127.43 35.07 127.97 35.42Q128.51 35.77 129.22 35.88Q129.94 35.98 130.73 35.98L130.73 35.98L131.13 35.98L131.13 38L123 38L122.48 33.69L122.30 33.69Q121.76 34.79 121.07 35.67Q120.38 36.55 119.48 37.17Q118.59 37.79 117.47 38.13Q116.34 38.47 114.94 38.47L114.94 38.47Q112.57 38.47 110.74 37.68Q108.91 36.90 107.67 35.27Q106.43 33.64 105.80 31.13Q105.16 28.63 105.16 25.18L105.16 25.18Q105.16 21.71 105.80 19.18Q106.43 16.65 107.67 15.01Q108.91 13.37 110.74 12.58Q112.57 11.80 114.94 11.80L114.94 11.80Q116.32 11.80 117.45 12.10Q118.57 12.41 119.47 12.97Q120.38 13.53 121.08 14.30Q121.78 15.08 122.30 16.02L122.30 16.02L122.58 16.02Q122.51 14.84 122.44 13.81L122.44 13.81Q122.39 12.92 122.34 12.04Q122.30 11.16 122.30 10.74L122.30 10.74L122.30 6.80Q122.30 5.75 121.98 5.11Q121.66 4.46 121.13 4.11Q120.59 3.76 119.87 3.65Q119.16 3.55 118.36 3.55L118.36 3.55L117.96 3.55L117.96 1.53L126.80 1.53ZM115.76 35.40L115.76 35.40Q117.63 35.40 118.89 34.78Q120.14 34.16 120.90 32.89Q121.66 31.63 121.98 29.70Q122.30 27.78 122.30 25.18L122.30 25.18Q122.30 22.67 121.98 20.75Q121.66 18.83 120.90 17.53Q120.14 16.23 118.88 15.55Q117.61 14.87 115.71 14.87L115.71 14.87Q114.14 14.87 113.02 15.55Q111.89 16.23 111.18 17.54Q110.46 18.85 110.13 20.79Q109.80 22.72 109.80 25.23L109.80 25.23Q109.80 30.34 111.19 32.87Q112.57 35.40 115.76 35.40ZM175.17 38L171.75 38L153.75 10.34L153.75 32.54Q153.75 33.66 154.07 34.34Q154.38 35.02 154.91 35.39Q155.44 35.75 156.16 35.87Q156.89 35.98 157.69 35.98L157.69 35.98L158.32 35.98L158.32 38L146.27 38L146.27 35.98L146.88 35.98Q147.70 35.98 148.42 35.87Q149.13 35.75 149.67 35.39Q150.21 35.02 150.52 34.34Q150.82 33.66 150.82 32.54L150.82 32.54L150.82 9.01Q150.82 7.95 150.50 7.31Q150.19 6.66 149.65 6.31Q149.11 5.96 148.39 5.86Q147.68 5.75 146.88 5.75L146.88 5.75L146.27 5.75L146.27 3.73L155.06 3.73L172.24 30.27L172.24 9.01Q172.24 7.95 171.93 7.31Q171.61 6.66 171.07 6.31Q170.53 5.96 169.82 5.86Q169.10 5.75 168.30 5.75L168.30 5.75L167.67 5.75L167.67 3.73L179.72 3.73L179.72 5.75L179.11 5.75Q178.29 5.75 177.57 5.87Q176.86 5.98 176.32 6.35Q175.78 6.71 175.48 7.39Q175.17 8.07 175.17 9.20L175.17 9.20L175.17 38ZM188.13 31.04L188.13 31.04Q188.13 33.29 189.08 34.40Q190.03 35.52 192.02 35.52L192.02 35.52Q193.48 35.52 194.66 35.05Q195.84 34.58 196.68 33.71Q197.51 32.84 197.95 31.60Q198.40 30.36 198.40 28.84L198.40 28.84L198.40 24.95L195.33 25.09Q193.29 25.18 191.92 25.59Q190.55 26 189.70 26.74Q188.86 27.48 188.50 28.55Q188.13 29.63 188.13 31.04ZM193.95 14.19L193.95 14.19Q192.56 14.19 191.71 14.57Q190.85 14.96 190.37 15.66Q189.89 16.37 189.73 17.33Q189.56 18.29 189.56 19.41L189.56 19.41Q187.57 19.41 186.53 18.73Q185.48 18.05 185.48 16.39L185.48 16.39Q185.48 15.15 186.16 14.28Q186.84 13.41 188.03 12.86Q189.21 12.31 190.78 12.05Q192.35 11.80 194.13 11.80L194.13 11.80Q196.34 11.80 197.98 12.23Q199.62 12.66 200.72 13.65Q201.82 14.63 202.37 16.21Q202.92 17.80 202.92 20.09L202.92 20.09L202.92 32.54Q202.92 33.55 203.09 34.20Q203.25 34.86 203.60 35.26Q203.95 35.66 204.53 35.82Q205.10 35.98 205.90 35.98L205.90 35.98L206.04 35.98L206.04 38L199.55 38L198.80 33.88L198.40 33.88Q197.65 34.88 196.95 35.73Q196.24 36.57 195.40 37.18Q194.55 37.79 193.49 38.13Q192.42 38.47 190.92 38.47L190.92 38.47Q189.33 38.47 187.96 38.01Q186.59 37.55 185.59 36.61Q184.59 35.66 184.03 34.21Q183.47 32.77 183.47 30.80L183.47 30.80Q183.47 26.98 186.19 25.13Q188.91 23.28 194.41 23.12L194.41 23.12L198.40 22.98L198.40 20.09Q198.40 18.80 198.26 17.71Q198.12 16.63 197.65 15.84Q197.18 15.05 196.30 14.62Q195.42 14.19 193.95 14.19ZM220.83 35.94L220.83 35.94Q221.70 35.94 222.42 35.84Q223.15 35.75 223.90 35.61L223.90 35.61L223.90 37.72Q223.59 37.86 223.10 38Q222.61 38.14 222.04 38.25Q221.46 38.35 220.83 38.41Q220.20 38.47 219.63 38.47L219.63 38.47Q217.80 38.47 216.49 38.08Q215.18 37.70 214.34 36.83Q213.49 35.96 213.08 34.53Q212.67 33.10 212.67 31.04L212.67 31.04L212.67 15.01L209.02 15.01L209.02 13.09Q209.88 13.09 210.93 12.73Q211.97 12.38 212.77 11.56L212.77 11.56Q213.59 10.67 214.09 9.44Q214.59 8.21 214.97 6.36L214.97 6.36L217.17 6.36L217.17 12.27L223.45 12.27L223.45 15.01L217.17 15.01L217.17 31.18Q217.17 33.64 218.17 34.79Q219.16 35.94 220.83 35.94ZM226.10 35.98L226.73 35.98Q227.53 35.98 228.25 35.88Q228.96 35.77 229.50 35.45Q230.04 35.12 230.36 34.47Q230.67 33.83 230.67 32.77L230.67 32.77L230.67 17.56Q230.67 16.51 230.36 15.86Q230.04 15.22 229.50 14.87Q228.96 14.52 228.25 14.40Q227.53 14.28 226.73 14.28L226.73 14.28L226.59 14.28L226.59 12.27L235.17 12.27L235.17 32.54Q235.17 33.66 235.49 34.34Q235.80 35.02 236.33 35.39Q236.86 35.75 237.59 35.87Q238.31 35.98 239.11 35.98L239.11 35.98L239.74 35.98L239.74 38L226.10 38L226.10 35.98ZM229.99 4.48L229.99 4.48Q229.99 3.64 230.20 3.08Q230.41 2.52 230.79 2.16Q231.16 1.81 231.66 1.67Q232.15 1.53 232.73 1.53L232.73 1.53Q233.30 1.53 233.79 1.67Q234.28 1.81 234.64 2.16Q235.01 2.52 235.23 3.08Q235.45 3.64 235.45 4.48L235.45 4.48Q235.45 5.33 235.23 5.89Q235.01 6.45 234.64 6.80Q234.28 7.16 233.79 7.31Q233.30 7.46 232.73 7.46L232.73 7.46Q232.15 7.46 231.66 7.31Q231.16 7.16 230.79 6.80Q230.41 6.45 230.20 5.89Q229.99 5.33 229.99 4.48ZM240.68 14.28L240.54 14.28L240.54 12.27L252.54 12.27L252.54 14.28L251.93 14.28Q250.48 14.28 249.76 14.84Q249.05 15.41 249.05 16.60L249.05 16.60Q249.05 17 249.14 17.41Q249.23 17.82 249.42 18.36L249.42 18.36L252.68 27.43Q252.98 28.27 253.31 29.29Q253.64 30.31 253.93 31.30Q254.23 32.28 254.46 33.16Q254.70 34.04 254.79 34.65L254.79 34.65L254.95 34.65Q255.07 34.13 255.34 33.37Q255.61 32.61 255.95 31.71Q256.29 30.80 256.65 29.87Q257.02 28.93 257.34 28.06L257.34 28.06L260.79 18.71Q261.02 18.13 261.13 17.59Q261.23 17.05 261.23 16.65L261.23 16.65Q261.23 15.41 260.45 14.84Q259.66 14.28 258.07 14.28L258.07 14.28L257.72 14.28L257.72 12.27L268.01 12.27L268.01 14.28L267.42 14.28Q266.72 14.28 266.23 14.43Q265.73 14.59 265.34 15.01Q264.94 15.43 264.57 16.16Q264.21 16.88 263.77 18.03L263.77 18.03L256.20 38L251.81 38L244.10 16.84Q243.82 16.09 243.52 15.59Q243.21 15.10 242.81 14.81Q242.41 14.52 241.90 14.40Q241.38 14.28 240.68 14.28L240.68 14.28ZM281.34 14.38L281.34 14.38Q278.67 14.38 277.23 16.54Q275.79 18.71 275.53 22.88L275.53 22.88L286.57 22.88Q286.57 20.98 286.29 19.41Q286.01 17.84 285.40 16.72Q284.79 15.59 283.79 14.98Q282.80 14.38 281.34 14.38ZM281.93 38.47L281.93 38.47Q279.33 38.47 277.25 37.59Q275.18 36.71 273.75 35.02Q272.32 33.34 271.56 30.89Q270.80 28.44 270.80 25.32L270.80 25.32Q270.80 18.59 273.56 15.20Q276.33 11.80 281.44 11.80L281.44 11.80Q283.76 11.80 285.61 12.52Q287.46 13.25 288.75 14.69Q290.04 16.13 290.73 18.28Q291.42 20.42 291.42 23.26L291.42 23.26L291.42 25.46L275.44 25.46Q275.48 28.09 275.96 29.97Q276.45 31.86 277.35 33.08Q278.25 34.30 279.56 34.87Q280.88 35.45 282.59 35.45L282.59 35.45Q283.83 35.45 284.89 35.16Q285.96 34.88 286.83 34.41Q287.70 33.95 288.36 33.35Q289.03 32.75 289.45 32.09L289.45 32.09Q289.78 32.23 290.07 32.68Q290.37 33.13 290.37 33.73L290.37 33.73Q290.37 34.46 289.85 35.29Q289.34 36.13 288.28 36.83Q287.23 37.53 285.64 38Q284.06 38.47 281.93 38.47ZM333.87 38L308.13 38L308.13 35.98L308.74 35.98Q309.56 35.98 310.28 35.87Q310.99 35.75 311.53 35.39Q312.07 35.02 312.38 34.34Q312.68 33.66 312.68 32.54L312.68 32.54L312.68 9.20Q312.68 8.07 312.38 7.39Q312.07 6.71 311.53 6.35Q310.99 5.98 310.28 5.87Q309.56 5.75 308.74 5.75L308.74 5.75L308.13 5.75L308.13 3.73L322.10 3.73L322.10 5.75L321.47 5.75Q320.67 5.75 319.96 5.86Q319.24 5.96 318.70 6.31Q318.16 6.66 317.85 7.31Q317.53 7.95 317.53 9.01L317.53 9.01L317.53 35.61L327 35.61Q328.08 35.61 328.84 35.22Q329.60 34.84 330.09 34.21Q330.59 33.59 330.86 32.82Q331.13 32.05 331.22 31.27L331.22 31.27L331.69 27.69L334.20 27.69L333.87 38ZM343.27 31.04L343.27 31.04Q343.27 33.29 344.21 34.40Q345.16 35.52 347.16 35.52L347.16 35.52Q348.61 35.52 349.79 35.05Q350.98 34.58 351.81 33.71Q352.64 32.84 353.09 31.60Q353.53 30.36 353.53 28.84L353.53 28.84L353.53 24.95L350.46 25.09Q348.42 25.18 347.05 25.59Q345.68 26 344.84 26.74Q343.99 27.48 343.63 28.55Q343.27 29.63 343.27 31.04ZM349.08 14.19L349.08 14.19Q347.70 14.19 346.84 14.57Q345.98 14.96 345.50 15.66Q345.02 16.37 344.86 17.33Q344.70 18.29 344.70 19.41L344.70 19.41Q342.70 19.41 341.66 18.73Q340.62 18.05 340.62 16.39L340.62 16.39Q340.62 15.15 341.30 14.28Q341.98 13.41 343.16 12.86Q344.34 12.31 345.91 12.05Q347.48 11.80 349.27 11.80L349.27 11.80Q351.47 11.80 353.11 12.23Q354.75 12.66 355.85 13.65Q356.95 14.63 357.50 16.21Q358.05 17.80 358.05 20.09L358.05 20.09L358.05 32.54Q358.05 33.55 358.22 34.20Q358.38 34.86 358.73 35.26Q359.09 35.66 359.66 35.82Q360.23 35.98 361.03 35.98L361.03 35.98L361.17 35.98L361.17 38L354.68 38L353.93 33.88L353.53 33.88Q352.78 34.88 352.08 35.73Q351.38 36.57 350.53 37.18Q349.69 37.79 348.62 38.13Q347.55 38.47 346.05 38.47L346.05 38.47Q344.46 38.47 343.09 38.01Q341.72 37.55 340.72 36.61Q339.73 35.66 339.16 34.21Q338.60 32.77 338.60 30.80L338.60 30.80Q338.60 26.98 341.32 25.13Q344.04 23.28 349.55 23.12L349.55 23.12L353.53 22.98L353.53 20.09Q353.53 18.80 353.39 17.71Q353.25 16.63 352.78 15.84Q352.31 15.05 351.43 14.62Q350.55 14.19 349.08 14.19ZM390.07 25.09L390.07 25.09Q390.07 28.55 389.43 31.09Q388.78 33.62 387.54 35.26Q386.30 36.90 384.47 37.68Q382.64 38.47 380.27 38.47L380.27 38.47Q378.89 38.47 377.77 38.16Q376.64 37.86 375.74 37.30Q374.84 36.73 374.14 35.96Q373.45 35.19 372.94 34.25L372.94 34.25L372.63 34.25L371.79 38L364.10 38L364.10 35.98L364.48 35.98Q365.30 35.98 366.01 35.87Q366.73 35.75 367.25 35.39Q367.78 35.02 368.10 34.34Q368.41 33.66 368.41 32.54L368.41 32.54L368.41 6.80Q368.41 5.75 368.10 5.11Q367.78 4.46 367.24 4.11Q366.70 3.76 365.99 3.65Q365.27 3.55 364.48 3.55L364.48 3.55L364.10 3.55L364.10 1.53L372.94 1.53L372.94 10.34Q372.94 11.16 372.91 12.23Q372.89 13.30 372.84 14.28L372.84 14.28Q372.80 15.41 372.75 16.60L372.75 16.60L372.94 16.60Q373.48 15.50 374.16 14.61Q374.84 13.72 375.73 13.10Q376.62 12.48 377.74 12.14Q378.87 11.80 380.27 11.80L380.27 11.80Q382.64 11.80 384.47 12.58Q386.30 13.37 387.54 15.00Q388.78 16.63 389.43 19.13Q390.07 21.64 390.07 25.09ZM379.45 14.87L379.45 14.87Q377.58 14.87 376.32 15.49Q375.07 16.11 374.32 17.38Q373.57 18.64 373.25 20.56Q372.94 22.48 372.94 25.09L372.94 25.09Q372.94 27.59 373.25 29.52Q373.57 31.44 374.33 32.75Q375.09 34.06 376.35 34.73Q377.60 35.40 379.50 35.40L379.50 35.40Q381.09 35.40 382.21 34.73Q383.32 34.06 384.04 32.75Q384.75 31.44 385.08 29.50Q385.41 27.57 385.41 25.04L385.41 25.04Q385.41 22.48 385.08 20.57Q384.75 18.66 384.04 17.40Q383.32 16.13 382.18 15.50Q381.05 14.87 379.45 14.87ZM402.77 38.47L402.77 38.47Q400.97 38.47 399.50 38.15Q398.04 37.84 397.01 37.19Q395.98 36.55 395.41 35.60Q394.85 34.65 394.85 33.38L394.85 33.38Q394.85 32.42 395.17 31.78Q395.48 31.13 395.94 30.76Q396.40 30.38 396.93 30.23Q397.45 30.08 397.88 30.08L397.88 30.08Q397.88 31.34 398.13 32.45Q398.39 33.55 399 34.38Q399.61 35.21 400.61 35.69Q401.60 36.17 403.05 36.17L403.05 36.17Q404.34 36.17 405.33 35.86Q406.31 35.54 406.98 34.96Q407.65 34.39 408 33.58Q408.35 32.77 408.35 31.81L408.35 31.81Q408.35 30.92 408.08 30.28Q407.81 29.63 407.14 29.07Q406.48 28.51 405.33 27.92Q404.18 27.34 402.45 26.59L402.45 26.59Q400.59 25.77 399.22 25.00Q397.85 24.24 396.96 23.35Q396.07 22.46 395.63 21.32Q395.18 20.19 395.18 18.62L395.18 18.62Q395.18 16.98 395.82 15.71Q396.47 14.45 397.66 13.59Q398.86 12.73 400.52 12.29Q402.19 11.84 404.23 11.84L404.23 11.84Q405.94 11.84 407.25 12.20Q408.56 12.55 409.45 13.14Q410.34 13.74 410.79 14.55Q411.23 15.36 411.23 16.25L411.23 16.25Q411.23 17.56 410.33 18.35Q409.43 19.13 407.77 19.13L407.77 19.13Q407.77 16.72 406.77 15.38Q405.77 14.05 403.64 14.05L403.64 14.05Q402.42 14.05 401.55 14.33Q400.69 14.61 400.14 15.13Q399.59 15.64 399.33 16.34Q399.07 17.05 399.07 17.89L399.07 17.89Q399.07 18.80 399.40 19.47Q399.73 20.14 400.44 20.70Q401.16 21.27 402.29 21.79Q403.43 22.32 405.02 22.98L405.02 22.98Q406.92 23.77 408.28 24.55Q409.64 25.32 410.52 26.23Q411.40 27.15 411.82 28.30Q412.24 29.45 412.24 30.95L412.24 30.95Q412.24 32.82 411.56 34.23Q410.88 35.63 409.64 36.58Q408.40 37.53 406.65 38Q404.91 38.47 402.77 38.47Z"/></svg><text fill="#ffffff" font-family="Verdana" font-size="29px" x="370.7" y="172.47000122070312"><tspan dy="0" x="370.7"></tspan></text></svg>